<svg xmlns="http://www.w3.org/2000/svg" width="394.241" height="396.94" viewBox="0 0 104.31 105.024"><g style="stroke:#fd5e37;stroke-width:14.734;stroke-dasharray:none;stroke-opacity:1"><path d="M0 0h-294.18v-294.705H0M-1.494 7.389l.11-309.461" style="fill:none;stroke:#fd5e37;stroke-width:14.734;stroke-linecap:butt;stroke-linejoin:miter;stroke-miterlimit:10;stroke-dasharray:none;stroke-opacity:1" transform="matrix(.33935 0 0 -.33935 102.324 2.507)"/></g><g style="stroke:#fd5e37;stroke-width:14.734;stroke-dasharray:none;stroke-opacity:1"><path d="M0 0v97.898h97.898V0" style="fill:none;stroke:#fd5e37;stroke-width:14.734;stroke-linecap:butt;stroke-linejoin:miter;stroke-miterlimit:10;stroke-dasharray:none;stroke-opacity:1" transform="matrix(.33935 0 0 -.33935 35.865 102.499)"/></g><g style="stroke:#fd5e37;stroke-width:14.734;stroke-dasharray:none;stroke-opacity:1"><path d="M0 0v148.418" style="fill:none;stroke:#fd5e37;stroke-width:14.734;stroke-linecap:butt;stroke-linejoin:miter;stroke-miterlimit:10;stroke-dasharray:none;stroke-opacity:1" transform="matrix(.33935 0 0 -.33935 85.418 102.499)"/></g><g style="stroke:#fd5e37;stroke-width:14.734;stroke-dasharray:none;stroke-opacity:1"><path d="M0 0v-148.418" style="fill:none;stroke:#fd5e37;stroke-width:14.734;stroke-linecap:butt;stroke-linejoin:miter;stroke-miterlimit:10;stroke-dasharray:none;stroke-opacity:1" transform="matrix(.33935 0 0 -.33935 19.458 52.133)"/></g><g style="stroke:#fd5e37;stroke-width:14.734;stroke-dasharray:none;stroke-opacity:1"><path d="M0 0v-294.381" style="fill:none;stroke:#fd5e37;stroke-width:14.734;stroke-linecap:butt;stroke-linejoin:miter;stroke-miterlimit:10;stroke-dasharray:none;stroke-opacity:1" transform="matrix(.33935 0 0 -.33935 52.476 2.6)"/></g><g style="stroke:#fd5e37;stroke-width:14.734;stroke-dasharray:none;stroke-opacity:1"><path d="m-2.098-4.472-97.898 74.02-97.898-74.02Z" style="fill:none;stroke:#fd5e37;stroke-width:14.734;stroke-linecap:butt;stroke-linejoin:bevel;stroke-miterlimit:10;stroke-dasharray:none;stroke-opacity:1" transform="matrix(.33935 0 0 -.33935 85.631 52.583)"/></g><g style="stroke:#fd5e37;stroke-width:14.734;stroke-dasharray:none;stroke-opacity:1"><path d="M0 0h294.18" style="fill:none;stroke:#fd5e37;stroke-width:14.734;stroke-linecap:butt;stroke-linejoin:miter;stroke-miterlimit:10;stroke-dasharray:none;stroke-opacity:1" transform="matrix(.33935 0 0 -.33935 2.495 27.465)"/></g><g style="stroke:#fd5e37;stroke-width:14.734;stroke-dasharray:none;stroke-opacity:1"><path d="M0 0v-40.72h-97.898" style="fill:none;stroke:#fd5e37;stroke-width:14.734;stroke-linecap:butt;stroke-linejoin:miter;stroke-miterlimit:10;stroke-dasharray:none;stroke-opacity:1" transform="matrix(.33935 0 0 -.33935 85.631 2.507)"/></g></svg>