<svg xmlns="http://www.w3.org/2000/svg" viewBox="0 0 110.176 25.781"><g style="stroke:#000;stroke-opacity:1;fill:none"><g style="stroke:#000;stroke-opacity:1;fill:none"><path d="M0 0v-59.939" style="fill:none;stroke:#000;stroke-width:2;stroke-linecap:butt;stroke-linejoin:miter;stroke-miterlimit:10;stroke-dasharray:none;stroke-opacity:1" transform="matrix(.35278 0 0 -.35278 14.293 4.42)"/></g><g style="stroke:#000;stroke-opacity:1;fill:none"><path d="m0 0-39.807 10.865v59.939L-.3 59.94" style="fill:none;stroke:#000;stroke-width:2;stroke-linecap:butt;stroke-linejoin:miter;stroke-miterlimit:10;stroke-dasharray:none;stroke-opacity:1" transform="matrix(.35278 0 0 -.35278 14.398 25.426)"/></g><g style="stroke:#000;stroke-opacity:1;fill:none"><path d="m0 0 39.507 10.864v-59.939L-.158-59.939" style="fill:none;stroke:#000;stroke-width:2;stroke-linecap:butt;stroke-linejoin:miter;stroke-miterlimit:10;stroke-dasharray:none;stroke-opacity:1" transform="matrix(.35278 0 0 -.35278 14.293 4.28)"/></g><g style="stroke:#000;stroke-opacity:1;fill:none"><path d="m0 0 20.716-5.736" style="fill:none;stroke:#000;stroke-width:2;stroke-linecap:butt;stroke-linejoin:miter;stroke-miterlimit:10;stroke-dasharray:none;stroke-opacity:1" transform="matrix(.35278 0 0 -.35278 3.67 6.29)"/></g><g style="stroke:#000;stroke-opacity:1;fill:none"><path d="m0 0 20.716-5.736" style="fill:none;stroke:#000;stroke-width:2;stroke-linecap:butt;stroke-linejoin:miter;stroke-miterlimit:10;stroke-dasharray:none;stroke-opacity:1" transform="matrix(.35278 0 0 -.35278 3.67 10.224)"/></g><g style="stroke:#000;stroke-opacity:1;fill:none"><path d="m0 0 20.716-5.736" style="fill:none;stroke:#000;stroke-width:2;stroke-linecap:butt;stroke-linejoin:miter;stroke-miterlimit:10;stroke-dasharray:none;stroke-opacity:1" transform="matrix(.35278 0 0 -.35278 3.67 14.159)"/></g><g style="stroke:#000;stroke-opacity:1;fill:none"><path d="m0 0 20.716-5.736" style="fill:none;stroke:#000;stroke-width:2;stroke-linecap:butt;stroke-linejoin:miter;stroke-miterlimit:10;stroke-dasharray:none;stroke-opacity:1" transform="matrix(.35278 0 0 -.35278 3.67 18.094)"/></g><g style="stroke:#000;stroke-opacity:1;fill:none"><path d="m0 0 20.716 5.736" style="fill:none;stroke:#000;stroke-width:2;stroke-linecap:butt;stroke-linejoin:miter;stroke-miterlimit:10;stroke-dasharray:none;stroke-opacity:1" transform="matrix(.35278 0 0 -.35278 17.607 8.313)"/></g><g style="stroke:#000;stroke-opacity:1;fill:none"><path d="m0 0 20.716 5.736" style="fill:none;stroke:#000;stroke-width:2;stroke-linecap:butt;stroke-linejoin:miter;stroke-miterlimit:10;stroke-dasharray:none;stroke-opacity:1" transform="matrix(.35278 0 0 -.35278 17.607 12.248)"/></g><g style="stroke:#000;stroke-opacity:1;fill:none"><path d="m0 0 20.716 5.736" style="fill:none;stroke:#000;stroke-width:2;stroke-linecap:butt;stroke-linejoin:miter;stroke-miterlimit:10;stroke-dasharray:none;stroke-opacity:1" transform="matrix(.35278 0 0 -.35278 17.607 16.183)"/></g><g style="stroke:#000;stroke-opacity:1;fill:none"><path d="m0 0 20.716 5.736" style="fill:none;stroke:#000;stroke-width:2;stroke-linecap:butt;stroke-linejoin:miter;stroke-miterlimit:10;stroke-dasharray:none;stroke-opacity:1" transform="matrix(.35278 0 0 -.35278 17.607 20.118)"/></g></g><g style="fill:none;stroke:#000;stroke-opacity:1"><path d="M0 0c0-24.477-19.843-43.042-44.319-43.042-19.582 0-35.456 15.875-35.456 35.456 0 15.665 12.699 28.364 28.364 28.364 12.533 0 22.692-10.159 22.692-22.691 0-10.026-8.128-18.153-18.153-18.153-8.021 0-14.523 6.502-14.523 14.522 0 6.417 5.202 11.618 11.618 11.618 5.133 0 9.295-4.161 9.295-9.294a7.436 7.436 0 0 0-7.436-7.436 5.948 5.948 0 0 0-5.948 5.948A4.758 4.758 0 0 0-49.108.051" style="fill:none;stroke:#000;stroke-width:2;stroke-linecap:butt;stroke-linejoin:miter;stroke-miterlimit:10;stroke-dasharray:none;stroke-opacity:1" transform="matrix(.35278 0 0 -.35278 73.768 8.319)"/></g><path d="M176.104 43.08h17.42L175.91 54.218h17.613l-17.9 11.317h17.9" style="fill:none;stroke:#000;stroke-width:.705556;stroke-linecap:butt;stroke-linejoin:miter;stroke-miterlimit:10;stroke-dasharray:none;stroke-opacity:1" transform="translate(-84.565 -42.086)"/></svg>