<svg xmlns="http://www.w3.org/2000/svg" viewBox="0 0 109.18 25.8"><defs><clipPath id="a" clipPathUnits="userSpaceOnUse"><path d="M0 6923.75h1920V0H0Z"/></clipPath></defs><g clip-path="url(#a)" transform="matrix(.3528 0 0 -.3528 -240.17 2038.52)"><path fill="none" stroke="#000" stroke-miterlimit="10" stroke-width="1.7" d="M752.93 5706.2h-71.3v71.42h71.3z"/><path fill="none" stroke="#000" stroke-miterlimit="10" stroke-width="1.7" d="M705.46 5706.21v23.73h23.73v-23.73M740.85 5706.21v35.97M693.75 5742.18v-35.97M717.33 5777.56v-71.35"/><path fill="none" stroke="#000" stroke-linejoin="bevel" stroke-miterlimit="10" stroke-width="1.7" d="m741 5741.86-23.72 17.94-23.73-17.94Z"/><path fill="none" stroke="#000" stroke-miterlimit="10" stroke-width="1.7" d="M681.63 5759.8h71.3M741 5777.62v-9.87h-23.72M752.9 5706.26h236.51v53.51h-236.5"/><text xml:space="preserve" font-family="PP Fraktion Sans" font-size="33.59" font-weight="700" transform="matrix(1 0 0 -1 766.58 5720.29)"><tspan x="0 20.892296 39.097481 56.530117 77.422417 98.784958 117.82986 136.774 147.72398 167.27272 188.16502" y="0">ALFADATIZAR</tspan></text></g></svg>