<svg xmlns="http://www.w3.org/2000/svg" viewBox="0 0 40.528 11.453"><defs><clipPath id="a" clipPathUnits="userSpaceOnUse"><path d="M0 6923.749h1920V0H0Z"/></clipPath></defs><g clip-path="url(#a)" transform="matrix(.35278 0 0 -.35278 -202.235 2019.818)"><path d="M630.707 5693.004c-4.794 0-9.146 10.129-13.557 10.387-4.923.288-10.508-9.221-14.74-8.658-5.212.693-7.842 11.358-11.623 12.387-7.02 1.91-17.521-.504-17.521 2.116 0 2.621 10.502.207 17.526 2.119 3.78 1.028 6.41 11.692 11.62 12.386 4.232.563 9.817-8.947 14.739-8.659 4.41.257 8.762 10.387 13.556 10.387 4.794 0 9.145-10.13 13.557-10.387 4.923-.288 10.508 9.222 14.74 8.658 5.212-.693 7.842-11.358 11.623-12.387 7.02-1.911 17.52.504 17.52-2.117 0-2.62-10.501-.207-17.525-2.118-3.78-1.028-6.41-11.693-11.62-12.386-4.232-.563-9.817 8.947-14.74 8.659-4.41-.258-8.762-10.387-13.555-10.387"/></g></svg>