<svg xmlns="http://www.w3.org/2000/svg" viewBox="0 0 677.33 75.52"><defs><clipPath id="a" clipPathUnits="userSpaceOnUse"><path d="M0 6923.75h1920V0H0Z"/></clipPath></defs><g clip-path="url(#a)" transform="matrix(.3528 0 0 -.3528 0 2062.82)"><path fill="#d5aada" d="M15.12 5633.29c52.48 0 52.48 115 104.97 115 6.37 0 11.96-1.71 16.97-4.69v.03l.38-.25.25-.15c.55-.34 1.1-.7 1.64-1.07l.2-.15a39.86 39.86 0 0 0 1.75-1.3c29.4-23.07 37.93-91.85 71.77-105.17l.11-.05c.5-.2 1.02-.37 1.54-.55l.48-.15a31.12 31.12 0 0 1 5.48-1.21l1.11-.12 1.06-.1c.65-.04 1.3-.06 1.96-.06l.29-.01c45.85.02 51.65 87.81 87.41 109.95l.13.08c.56.35 1.13.67 1.7.98l.3.16c.51.28 1.04.53 1.58.78l.46.22c.48.21.97.4 1.46.6l.66.25c.43.16.88.3 1.32.44.28.1.56.19.85.27.39.11.78.2 1.18.3.35.09.7.18 1.06.25l1.01.19c.43.07.86.15 1.3.21.27.04.55.06.82.09.52.06 1.03.11 1.56.14l.12.01c.65.04 1.3.07 1.98.07h.09c52.47 0 52.5-114.92 104.93-115 52.44.08 52.45 115 104.92 115h.11c52.38-.15 52.42-115 104.87-115 52.48 0 52.48 115 104.97 115 52.48 0 52.48-115 104.97-115 52.48 0 52.48 115 104.97 115 52.48 0 52.48-115 104.97-115s52.49 115 104.97 115c52.49 0 52.49-115 104.97-115 52.5 0 52.5 115 104.98 115 52.49 0 52.49-114.99 104.97-115 52.49.01 52.49 115 104.98 115a32.6 32.6 0 0 0 17.12-4.77v.12c35.74-21.17 41.73-107.54 85.88-110.28l.5-.01c.51-.03 1.03-.05 1.56-.05 51.54.14 52.42 111.3 102.4 114.88l.21.02.23.02c.7.04 1.42.07 2.15.07h.09c52.47 0 52.49-114.92 104.93-115a32.5 32.5 0 0 1 16.05 4.2v209.88H-.73v-210.04a32.54 32.54 0 0 1 15.85-4.03"/></g></svg>