<svg xmlns="http://www.w3.org/2000/svg" viewBox="0 0 49.972 51.436"><path fill="none" stroke="#000" stroke-miterlimit="10" stroke-width=".70556" d="M3.716 0v51.436M49.972 46.682H0M3.716 36.417s.995-.663 2.22-.384c1.227.279 1.728 1.174 3.43-.37 1.357-1.232 2.455-.308 3.109-.148.653.16 1.768.997 2.82-.798.965-1.65 1.96-1.515 3.064-.359 1.103 1.157 1.553.718 2.533-1.316.981-2.033 1.676-3.429 2.82-1.116 1.144 2.313 1.634 3.31 2.86-.957 1.226-4.266 1.716-5.701 2.983-1.276 1.267 4.426 1.839 3.23 2.901-2.272 1.063-5.503 1.471-8.585 2.902-1.123 1.43 7.462 2.083 4.591 2.86-3.183.776-7.776 1.798-10.327 2.942-.997 1.144 9.33 1.92 8.692 2.82-3.589.898-12.28 2.329-12.36 2.942-.678"/></svg>