<svg xmlns="http://www.w3.org/2000/svg" viewBox="0 0 48.031 48.115"><path fill="none" stroke="#000" stroke-miterlimit="10" stroke-width=".70556" d="M47.678 47.763H.353V.353h47.325Z"/><path fill="none" stroke="#000" stroke-miterlimit="10" stroke-width=".70556" d="M16.172 47.754V32.005h15.75v15.75M39.664 47.754V23.878M8.394 23.878v23.876M24.047.396v47.358"/><path fill="none" stroke="#000" stroke-linejoin="bevel" stroke-miterlimit="10" stroke-width=".70556" d="m39.765 24.092-15.75-11.908L8.268 24.092Z"/><path fill="none" stroke="#000" stroke-miterlimit="10" stroke-width=".70556" d="M.353 12.184h47.325M39.765.353v6.55h-15.75"/><path fill="none" stroke="#000" stroke-miterlimit="10" stroke-width=".70556" d="M47.678 47.763H.353V.353h47.325Z"/><path fill="none" stroke="#000" stroke-miterlimit="10" stroke-width=".70556" d="M16.172 47.754V32.005h15.75v15.75M39.664 47.754V23.878M8.394 23.878v23.876M24.047.396v47.358"/><path fill="none" stroke="#000" stroke-linejoin="bevel" stroke-miterlimit="10" stroke-width=".70556" d="m39.765 24.092-15.75-11.908L8.268 24.092Z"/><path fill="none" stroke="#000" stroke-miterlimit="10" stroke-width=".70556" d="M.353 12.184h47.325M39.765.353v6.55h-15.75"/></svg>