<svg xmlns="http://www.w3.org/2000/svg" viewBox="0 0 79.031 33.875"><defs><clipPath id="a" clipPathUnits="userSpaceOnUse"><path d="M0 6923.749h1920V0H0Z"/></clipPath></defs><g clip-path="url(#a)" transform="matrix(.35278 0 0 -.35278 -97.334 2036.94)"><path fill="none" stroke="#000" stroke-miterlimit="10" stroke-width="2" d="M291.296 5711.6c-7.947 0-14.39 6.442-14.39 14.39 0 7.946 6.443 14.388 14.39 14.388 7.947 0 14.389-6.442 14.389-14.389 0-7.947-6.442-14.389-14.39-14.389ZM291.296 5744.223c-7.947 0-14.39 6.442-14.39 14.39 0 7.946 6.443 14.388 14.39 14.388 7.947 0 14.389-6.442 14.389-14.389 0-7.947-6.442-14.389-14.39-14.389ZM291.296 5678.978c-7.947 0-14.39 6.442-14.39 14.389 0 7.947 6.443 14.389 14.39 14.389 7.947 0 14.389-6.442 14.389-14.39 0-7.946-6.442-14.388-14.39-14.388ZM305.685 5693.366h52.577v65.936h-52.577M305.685 5725.99h111.89M484.542 5740.378c7.947 0 14.389-6.442 14.389-14.389 0-7.947-6.442-14.389-14.39-14.389-7.946 0-14.388 6.442-14.388 14.39 0 7.946 6.442 14.388 14.389 14.388ZM484.542 5707.755c7.947 0 14.389-6.442 14.389-14.389 0-7.947-6.442-14.389-14.39-14.389-7.946 0-14.388 6.442-14.388 14.39 0 7.946 6.442 14.388 14.389 14.388ZM484.542 5773.001c7.947 0 14.389-6.442 14.389-14.389 0-7.947-6.442-14.389-14.39-14.389-7.946 0-14.388 6.442-14.388 14.39 0 7.946 6.442 14.388 14.389 14.388Z"/><path fill="none" stroke="#000" stroke-miterlimit="10" stroke-width="2" d="M292.756 5732.742a6.752 6.752 0 0 0 0-13.505M292.756 5765.365a6.752 6.752 0 0 0 0-13.505M292.756 5700.12a6.752 6.752 0 0 0 0-13.506M483.081 5719.237a6.753 6.753 0 1 0 0 13.505M483.081 5686.614a6.753 6.753 0 1 0 0 13.505M483.081 5751.86a6.753 6.753 0 1 0 0 13.505M470.152 5758.612h-52.577v-65.936h52.577M470.152 5725.99h-52.577"/><path d="M287.402 5717.566a1.67 1.67 0 1 0 0 3.341 1.67 1.67 0 0 0 0-3.34M287.402 5731.071a1.67 1.67 0 1 0 0 3.341 1.67 1.67 0 0 0 0-3.34M287.402 5750.19a1.67 1.67 0 1 0 0 3.34 1.67 1.67 0 0 0 0-3.34M287.402 5763.694a1.67 1.67 0 1 0 0 3.341 1.67 1.67 0 0 0 0-3.34M287.402 5684.944a1.67 1.67 0 1 0 0 3.34 1.67 1.67 0 0 0 0-3.34M287.402 5698.449a1.67 1.67 0 1 0 0 3.34 1.67 1.67 0 0 0 0-3.34M488.435 5734.412a1.67 1.67 0 1 0 0-3.34 1.67 1.67 0 0 0 0 3.34M488.435 5720.907a1.67 1.67 0 1 0 0-3.34 1.67 1.67 0 0 0 0 3.34M488.435 5701.79a1.67 1.67 0 1 0 0-3.34 1.67 1.67 0 0 0 0 3.34M488.435 5688.284a1.67 1.67 0 1 0 0-3.34 1.67 1.67 0 0 0 0 3.34M488.435 5767.035a1.67 1.67 0 1 0 0-3.34 1.67 1.67 0 0 0 0 3.34M488.435 5753.53a1.67 1.67 0 1 0 0-3.34 1.67 1.67 0 0 0 0 3.34"/></g></svg>