<svg xmlns="http://www.w3.org/2000/svg" viewBox="0 0 208.62 105.02"><defs><clipPath id="a" clipPathUnits="userSpaceOnUse"><path d="M0 6923.75h1920V0H0Z"/></clipPath></defs><g clip-path="url(#a)" transform="matrix(.3528 0 0 -.3528 -34.53 2056.76)"><text xml:space="preserve" font-family="PP Fraktion Sans" font-size="89.55" font-weight="700" transform="matrix(1 0 0 -1 435.95 5732.55)"><tspan x="0 55.696991 104.23038 150.70424" y="0">ALFA</tspan><tspan x="0 56.950619 107.72263 158.22601" y="84.71">DATI</tspan><tspan x="0 52.115189 107.81218" y="169.42">ZAR</tspan></text><path fill="none" stroke="#000" stroke-miterlimit="10" stroke-width="3" d="M393.56 5828.68H99.38v-294.7h294.18"/><path fill="none" stroke="#000" stroke-miterlimit="10" stroke-width="3" d="M197.72 5534.02v97.9h97.9v-97.9M343.75 5534.02v148.42M149.37 5682.44v-148.42M246.67 5828.4v-294.38"/><path fill="none" stroke="#000" stroke-linejoin="bevel" stroke-miterlimit="10" stroke-width="3" d="m344.37 5681.11-97.9 74.02-97.9-74.02Z"/><path fill="none" stroke="#000" stroke-miterlimit="10" stroke-width="3" d="M99.38 5755.13h294.18M393.56 5534.02h294.18v294.66H393.56zM344.37 5828.68v-40.72h-97.9"/></g></svg>